<svg width="25" height="25" viewBox="0 0 25 25" fill="none" xmlns="http://www.w3.org/2000/svg">
<g clip-path="url(#clip0_16605_252)">
<path d="M2.92345 13.4538H22.94C23.765 13.4538 24.4338 12.7851 24.4338 11.9601C24.4338 11.1351 23.765 10.4663 22.94 10.4663H2.92345C2.09845 10.4663 1.42969 11.1351 1.42969 11.9601C1.42964 12.7851 2.09845 13.4538 2.92345 13.4538Z" fill="#666666"/>
<path d="M14.4254 7.24426C13.9894 7.24426 13.6348 7.59892 13.6348 8.0349V9.05992H19.7538V8.0349C19.7538 7.59892 19.3991 7.24426 18.9631 7.24426H14.4254Z" fill="#666666"/>
<path d="M4.70315 8.03502C4.70315 6.82363 5.68865 5.83813 6.90004 5.83813H11.4378C12.0142 5.83813 12.5392 6.06163 12.9315 6.42613C13.3238 6.06163 13.8488 5.83813 14.4253 5.83813H18.963C20.1744 5.83813 21.1599 6.82363 21.1599 8.03502V9.06004H23.4422V4.21691C23.4422 3.39191 22.7734 2.72314 21.9485 2.72314H3.91466C3.08966 2.72314 2.4209 3.39191 2.4209 4.21691V9.06004H4.70315V8.03502Z" fill="#666666"/>
<path d="M6.90002 7.24426C6.46403 7.24426 6.10938 7.59892 6.10938 8.0349V9.05992H12.2284V8.0349C12.2284 7.59892 11.8737 7.24426 11.4377 7.24426H6.90002Z" fill="#666666"/>
<path d="M0.931641 14.86V21.3295H2.33789V18.7656H23.5254V21.3295H24.9316V14.86H0.931641Z" fill="#666666"/>
</g>
<defs>
<clipPath id="clip0_16605_252">
<rect width="24" height="24" fill="white" transform="translate(0.931641 0.0263672)"/>
</clipPath>
</defs>
</svg>
