<svg width="25" height="25" viewBox="0 0 25 25" fill="none" xmlns="http://www.w3.org/2000/svg">
<g clip-path="url(#clip0_16605_264)">
<path d="M24.5566 7.99121H1.30664C1.09918 7.99121 0.931641 7.82367 0.931641 7.61621V6.11548C0.931641 5.90802 1.09918 5.74048 1.30664 5.74048H24.5566C24.7641 5.74048 24.9316 5.90802 24.9316 6.11548V7.61621C24.9316 7.82367 24.7641 7.99121 24.5566 7.99121ZM1.68164 7.24121H24.1816V6.49048H1.68164V7.24121Z" fill="#666666"/>
<path d="M1.68164 19.623C1.47418 19.623 1.30664 19.4555 1.30664 19.248V7.68311C1.30664 7.47565 1.47418 7.30811 1.68164 7.30811C1.8891 7.30811 2.05664 7.47565 2.05664 7.68311V19.248C2.05664 19.4555 1.8891 19.623 1.68164 19.623Z" fill="#666666"/>
<path d="M2.80664 19.623C2.59918 19.623 2.43164 19.4555 2.43164 19.248V7.68311C2.43164 7.47565 2.59918 7.30811 2.80664 7.30811C3.0141 7.30811 3.18164 7.47565 3.18164 7.68311V19.248C3.18164 19.4555 3.0141 19.623 2.80664 19.623Z" fill="#666666"/>
<path d="M23.0566 19.623C22.8492 19.623 22.6816 19.4555 22.6816 19.248V7.68311C22.6816 7.47565 22.8492 7.30811 23.0566 7.30811C23.2641 7.30811 23.4316 7.47565 23.4316 7.68311V19.248C23.4316 19.4555 23.2641 19.623 23.0566 19.623Z" fill="#666666"/>
<path d="M24.1816 19.623C23.9742 19.623 23.8066 19.4555 23.8066 19.248V7.68311C23.8066 7.47565 23.9742 7.30811 24.1816 7.30811C24.3891 7.30811 24.5566 7.47565 24.5566 7.68311V19.248C24.5566 19.4555 24.3891 19.623 24.1816 19.623Z" fill="#666666"/>
<path d="M2.80664 19.623H1.68164C1.47418 19.623 1.30664 19.4555 1.30664 19.248C1.30664 19.0406 1.47418 18.873 1.68164 18.873H2.80664C3.0141 18.873 3.18164 19.0406 3.18164 19.248C3.18164 19.4555 3.0141 19.623 2.80664 19.623Z" fill="#666666"/>
<path d="M24.1816 19.623H23.0566C22.8492 19.623 22.6816 19.4555 22.6816 19.248C22.6816 19.0406 22.8492 18.873 23.0566 18.873H24.1816C24.3891 18.873 24.5566 19.0406 24.5566 19.248C24.5566 19.4555 24.3891 19.623 24.1816 19.623Z" fill="#666666"/>
<path d="M23.0566 13.2458H2.80664C2.59918 13.2458 2.43164 13.0781 2.43164 12.8708C2.43164 12.6634 2.59918 12.4958 2.80664 12.4958H23.0566C23.2641 12.4958 23.4316 12.6634 23.4316 12.8708C23.4316 13.0781 23.2641 13.2458 23.0566 13.2458Z" fill="#666666"/>
<path d="M23.0566 14.3716H2.80664C2.59918 14.3716 2.43164 14.2039 2.43164 13.9966C2.43164 13.7891 2.59918 13.6216 2.80664 13.6216H23.0566C23.2641 13.6216 23.4316 13.7891 23.4316 13.9966C23.4316 14.2039 23.2641 14.3716 23.0566 14.3716Z" fill="#666666"/>
<path d="M4.30566 13.2466C4.09821 13.2466 3.93066 13.0789 3.93066 12.8716C3.93066 11.8376 4.77148 10.9966 5.8053 10.9966C6.01257 10.9966 6.1803 11.1641 6.1803 11.3716C6.1803 11.5789 6.01257 11.7466 5.8053 11.7466C5.18549 11.7466 4.68066 12.2512 4.68066 12.8716C4.68066 13.0789 4.51294 13.2466 4.30566 13.2466Z" fill="#666666"/>
<path d="M8.05627 13.2466C7.84882 13.2466 7.68127 13.0789 7.68127 12.8716C7.68127 12.2512 7.17645 11.7466 6.55664 11.7466C6.34937 11.7466 6.18164 11.5789 6.18164 11.3716C6.18164 11.1641 6.34937 10.9966 6.55664 10.9966C7.59045 10.9966 8.43127 11.8376 8.43127 12.8716C8.43127 13.0789 8.26373 13.2466 8.05627 13.2466Z" fill="#666666"/>
<path d="M4.68066 12.2547C4.47321 12.2547 4.30566 12.087 4.30566 11.8797V9.87158C4.30566 9.66412 4.47321 9.49658 4.68066 9.49658C4.88794 9.49658 5.05566 9.66412 5.05566 9.87158V11.8797C5.05566 12.087 4.88794 12.2547 4.68066 12.2547Z" fill="#666666"/>
<path d="M7.67969 12.2547C7.47223 12.2547 7.30469 12.087 7.30469 11.8797V9.87158C7.30469 9.66412 7.47223 9.49658 7.67969 9.49658C7.88696 9.49658 8.05469 9.66412 8.05469 9.87158V11.8797C8.05469 12.087 7.88696 12.2547 7.67969 12.2547Z" fill="#666666"/>
<path d="M5.43164 10.6223C5.22418 10.6223 5.05664 10.4546 5.05664 10.2473V9.12158C5.05664 8.91412 5.22418 8.74658 5.43164 8.74658C5.6391 8.74658 5.80664 8.91412 5.80664 9.12158V10.2473C5.80664 10.4546 5.6391 10.6223 5.43164 10.6223Z" fill="#666666"/>
<path d="M6.93164 9.49658H5.43164C5.22418 9.49658 5.05664 9.32886 5.05664 9.12158C5.05664 8.91412 5.22418 8.74658 5.43164 8.74658H6.93164C7.1391 8.74658 7.30664 8.91412 7.30664 9.12158C7.30664 9.32886 7.1391 9.49658 6.93164 9.49658Z" fill="#666666"/>
<path d="M6.93164 10.6223C6.72418 10.6223 6.55664 10.4546 6.55664 10.2473V9.12158C6.55664 8.91412 6.72418 8.74658 6.93164 8.74658C7.1391 8.74658 7.30664 8.91412 7.30664 9.12158V10.2473C7.30664 10.4546 7.1391 10.6223 6.93164 10.6223Z" fill="#666666"/>
<path d="M5.4314 10.2466H4.68066C4.47321 10.2466 4.30566 10.0789 4.30566 9.87158C4.30566 9.66412 4.47321 9.49658 4.68066 9.49658H5.4314C5.63885 9.49658 5.8064 9.66412 5.8064 9.87158C5.8064 10.0789 5.63885 10.2466 5.4314 10.2466Z" fill="#666666"/>
<path d="M7.68018 10.2466H6.93164C6.72418 10.2466 6.55664 10.0789 6.55664 9.87158C6.55664 9.66412 6.72418 9.49658 6.93164 9.49658H7.68018C7.88745 9.49658 8.05518 9.66412 8.05518 9.87158C8.05518 10.0789 7.88745 10.2466 7.68018 10.2466Z" fill="#666666"/>
<path d="M6.55713 11.7466H5.80566C5.59821 11.7466 5.43066 11.5789 5.43066 11.3716C5.43066 11.1641 5.59821 10.9966 5.80566 10.9966H6.55713C6.76459 10.9966 6.93213 11.1641 6.93213 11.3716C6.93213 11.5789 6.76459 11.7466 6.55713 11.7466Z" fill="#666666"/>
<path d="M9.18066 13.2466C8.97321 13.2466 8.80566 13.0789 8.80566 12.8716C8.80566 11.8376 9.64648 10.9966 10.6803 10.9966C10.8876 10.9966 11.0553 11.1641 11.0553 11.3716C11.0553 11.5789 10.8876 11.7466 10.6803 11.7466C10.0605 11.7466 9.55566 12.2512 9.55566 12.8716C9.55566 13.0789 9.38794 13.2466 9.18066 13.2466Z" fill="#666666"/>
<path d="M12.9313 13.2466C12.7238 13.2466 12.5563 13.0789 12.5563 12.8716C12.5563 12.2512 12.0515 11.7466 11.4316 11.7466C11.2244 11.7466 11.0566 11.5789 11.0566 11.3716C11.0566 11.1641 11.2244 10.9966 11.4316 10.9966C12.4655 10.9966 13.3063 11.8376 13.3063 12.8716C13.3063 13.0789 13.1387 13.2466 12.9313 13.2466Z" fill="#666666"/>
<path d="M9.55566 12.2547C9.34821 12.2547 9.18066 12.087 9.18066 11.8797V9.87158C9.18066 9.66412 9.34821 9.49658 9.55566 9.49658C9.76294 9.49658 9.93066 9.66412 9.93066 9.87158V11.8797C9.93066 12.087 9.76294 12.2547 9.55566 12.2547Z" fill="#666666"/>
<path d="M12.5547 12.2547C12.3472 12.2547 12.1797 12.087 12.1797 11.8797V9.87158C12.1797 9.66412 12.3472 9.49658 12.5547 9.49658C12.762 9.49658 12.9297 9.66412 12.9297 9.87158V11.8797C12.9297 12.087 12.762 12.2547 12.5547 12.2547Z" fill="#666666"/>
<path d="M10.3066 10.6223C10.0992 10.6223 9.93164 10.4546 9.93164 10.2473V9.12158C9.93164 8.91412 10.0992 8.74658 10.3066 8.74658C10.5141 8.74658 10.6816 8.91412 10.6816 9.12158V10.2473C10.6816 10.4546 10.5141 10.6223 10.3066 10.6223Z" fill="#666666"/>
<path d="M11.8066 9.49658H10.3066C10.0992 9.49658 9.93164 9.32886 9.93164 9.12158C9.93164 8.91412 10.0992 8.74658 10.3066 8.74658H11.8066C12.0141 8.74658 12.1816 8.91412 12.1816 9.12158C12.1816 9.32886 12.0141 9.49658 11.8066 9.49658Z" fill="#666666"/>
<path d="M11.8066 10.6223C11.5992 10.6223 11.4316 10.4546 11.4316 10.2473V9.12158C11.4316 8.91412 11.5992 8.74658 11.8066 8.74658C12.0141 8.74658 12.1816 8.91412 12.1816 9.12158V10.2473C12.1816 10.4546 12.0141 10.6223 11.8066 10.6223Z" fill="#666666"/>
<path d="M10.3064 10.2466H9.55566C9.34821 10.2466 9.18066 10.0789 9.18066 9.87158C9.18066 9.66412 9.34821 9.49658 9.55566 9.49658H10.3064C10.5139 9.49658 10.6814 9.66412 10.6814 9.87158C10.6814 10.0789 10.5139 10.2466 10.3064 10.2466Z" fill="#666666"/>
<path d="M12.5552 10.2466H11.8066C11.5992 10.2466 11.4316 10.0789 11.4316 9.87158C11.4316 9.66412 11.5992 9.49658 11.8066 9.49658H12.5552C12.7625 9.49658 12.9302 9.66412 12.9302 9.87158C12.9302 10.0789 12.7625 10.2466 12.5552 10.2466Z" fill="#666666"/>
<path d="M11.4321 11.7466H10.6807C10.4732 11.7466 10.3057 11.5789 10.3057 11.3716C10.3057 11.1641 10.4732 10.9966 10.6807 10.9966H11.4321C11.6396 10.9966 11.8071 11.1641 11.8071 11.3716C11.8071 11.5789 11.6396 11.7466 11.4321 11.7466Z" fill="#666666"/>
<path d="M12.9395 18.8723C12.732 18.8723 12.5645 18.7046 12.5645 18.4973C12.5645 17.8766 13.0696 17.3716 13.6902 17.3716C13.8976 17.3716 14.0652 17.5391 14.0652 17.7466C14.0652 17.9539 13.8976 18.1216 13.6902 18.1216C13.4829 18.1216 13.3145 18.2899 13.3145 18.4973C13.3145 18.7046 13.1465 18.8723 12.9395 18.8723Z" fill="#666666"/>
<path d="M16.6904 18.8723C16.4832 18.8723 16.3154 18.7046 16.3154 18.4973C16.3154 18.2902 16.1475 18.1223 15.9404 18.1223C15.7332 18.1223 15.5654 17.9546 15.5654 17.7473C15.5654 17.5399 15.7332 17.3723 15.9404 17.3723C16.5608 17.3723 17.0654 17.877 17.0654 18.4973C17.0654 18.7046 16.8979 18.8723 16.6904 18.8723Z" fill="#666666"/>
<path d="M16.6906 19.623H12.9395C12.732 19.623 12.5645 19.4555 12.5645 19.248C12.5645 19.0406 12.732 18.873 12.9395 18.873H16.6909C16.8984 18.873 17.0659 19.0406 17.0659 19.248C17.0659 19.4555 16.898 19.623 16.6906 19.623Z" fill="#666666"/>
<path d="M15.9709 18.1216H13.6602C13.4529 18.1216 13.2852 17.9539 13.2852 17.7466C13.2852 17.5391 13.4529 17.3716 13.6602 17.3716H15.9709C16.1784 17.3716 16.3459 17.5391 16.3459 17.7466C16.3459 17.9539 16.1784 18.1216 15.9709 18.1216Z" fill="#666666"/>
<path d="M13.6895 18.1216C13.482 18.1216 13.3145 17.9539 13.3145 17.7466V15.4973C13.3145 15.2899 13.482 15.1223 13.6895 15.1223C13.8969 15.1223 14.0645 15.2899 14.0645 15.4973V17.7466C14.0645 17.9539 13.8969 18.1216 13.6895 18.1216Z" fill="#666666"/>
<path d="M15.9414 18.1223C15.7341 18.1223 15.5664 17.9546 15.5664 17.7473V15.4973C15.5664 15.2899 15.7341 15.1223 15.9414 15.1223C16.1489 15.1223 16.3164 15.2899 16.3164 15.4973V17.7473C16.3164 17.9546 16.1489 18.1223 15.9414 18.1223Z" fill="#666666"/>
<path d="M12.9395 19.623C12.732 19.623 12.5645 19.4555 12.5645 19.248V18.4973C12.5645 18.2899 12.732 18.1223 12.9395 18.1223C13.1469 18.1223 13.3145 18.2899 13.3145 18.4973V19.248C13.3145 19.4555 13.1465 19.623 12.9395 19.623Z" fill="#666666"/>
<path d="M16.6904 19.623C16.4832 19.623 16.3154 19.4555 16.3154 19.248V18.4973C16.3154 18.2899 16.4832 18.1223 16.6904 18.1223C16.8979 18.1223 17.0654 18.2899 17.0654 18.4973V19.248C17.0654 19.4555 16.8979 19.623 16.6904 19.623Z" fill="#666666"/>
<path d="M15.9409 15.8723H13.6895C13.482 15.8723 13.3145 15.7046 13.3145 15.4973C13.3145 15.2899 13.482 15.1223 13.6895 15.1223H15.9409C16.1484 15.1223 16.3159 15.2899 16.3159 15.4973C16.3159 15.7046 16.1484 15.8723 15.9409 15.8723Z" fill="#666666"/>
<path d="M16.3156 16.9973H13.3145C13.107 16.9973 12.9395 16.8296 12.9395 16.6223C12.9395 16.4149 13.107 16.2473 13.3145 16.2473H16.3156C16.523 16.2473 16.6906 16.4149 16.6906 16.6223C16.6906 16.8296 16.523 16.9973 16.3156 16.9973Z" fill="#666666"/>
<path d="M17.8145 18.8723C17.607 18.8723 17.4395 18.7046 17.4395 18.4973C17.4395 17.8766 17.9446 17.3716 18.5652 17.3716C18.7726 17.3716 18.9402 17.5391 18.9402 17.7466C18.9402 17.9539 18.7726 18.1216 18.5652 18.1216C18.3579 18.1216 18.1895 18.2899 18.1895 18.4973C18.1895 18.7046 18.0215 18.8723 17.8145 18.8723Z" fill="#666666"/>
<path d="M21.5654 18.8723C21.3582 18.8723 21.1904 18.7046 21.1904 18.4973C21.1904 18.2902 21.0225 18.1223 20.8154 18.1223C20.6082 18.1223 20.4404 17.9546 20.4404 17.7473C20.4404 17.5399 20.6082 17.3723 20.8154 17.3723C21.4358 17.3723 21.9404 17.877 21.9404 18.4973C21.9404 18.7046 21.7729 18.8723 21.5654 18.8723Z" fill="#666666"/>
<path d="M21.5656 19.623H17.8145C17.607 19.623 17.4395 19.4555 17.4395 19.248C17.4395 19.0406 17.607 18.873 17.8145 18.873H21.5659C21.7734 18.873 21.9409 19.0406 21.9409 19.248C21.9409 19.4555 21.773 19.623 21.5656 19.623Z" fill="#666666"/>
<path d="M20.8459 18.1216H18.5352C18.3279 18.1216 18.1602 17.9539 18.1602 17.7466C18.1602 17.5391 18.3279 17.3716 18.5352 17.3716H20.8459C21.0534 17.3716 21.2209 17.5391 21.2209 17.7466C21.2209 17.9539 21.0534 18.1216 20.8459 18.1216Z" fill="#666666"/>
<path d="M18.5645 18.1216C18.357 18.1216 18.1895 17.9539 18.1895 17.7466V15.4973C18.1895 15.2899 18.357 15.1223 18.5645 15.1223C18.7719 15.1223 18.9395 15.2899 18.9395 15.4973V17.7466C18.9395 17.9539 18.7719 18.1216 18.5645 18.1216Z" fill="#666666"/>
<path d="M20.8164 18.1223C20.6091 18.1223 20.4414 17.9546 20.4414 17.7473V15.4973C20.4414 15.2899 20.6091 15.1223 20.8164 15.1223C21.0239 15.1223 21.1914 15.2899 21.1914 15.4973V17.7473C21.1914 17.9546 21.0239 18.1223 20.8164 18.1223Z" fill="#666666"/>
<path d="M17.8145 19.623C17.607 19.623 17.4395 19.4555 17.4395 19.248V18.4973C17.4395 18.2899 17.607 18.1223 17.8145 18.1223C18.0219 18.1223 18.1895 18.2899 18.1895 18.4973V19.248C18.1895 19.4555 18.0215 19.623 17.8145 19.623Z" fill="#666666"/>
<path d="M21.5654 19.623C21.3582 19.623 21.1904 19.4555 21.1904 19.248V18.4973C21.1904 18.2899 21.3582 18.1223 21.5654 18.1223C21.7729 18.1223 21.9404 18.2899 21.9404 18.4973V19.248C21.9404 19.4555 21.7729 19.623 21.5654 19.623Z" fill="#666666"/>
<path d="M20.8159 15.8723H18.5645C18.357 15.8723 18.1895 15.7046 18.1895 15.4973C18.1895 15.2899 18.357 15.1223 18.5645 15.1223H20.8159C21.0234 15.1223 21.1909 15.2899 21.1909 15.4973C21.1909 15.7046 21.0234 15.8723 20.8159 15.8723Z" fill="#666666"/>
<path d="M21.1906 16.9973H18.1895C17.982 16.9973 17.8145 16.8296 17.8145 16.6223C17.8145 16.4149 17.982 16.2473 18.1895 16.2473H21.1906C21.398 16.2473 21.5656 16.4149 21.5656 16.6223C21.5656 16.8296 21.398 16.9973 21.1906 16.9973Z" fill="#666666"/>
</g>
<defs>
<clipPath id="clip0_16605_264">
<rect width="24" height="24" fill="white" transform="translate(0.931641 0.677979)"/>
</clipPath>
</defs>
</svg>
