<svg width="25" height="25" viewBox="0 0 25 25" fill="none" xmlns="http://www.w3.org/2000/svg">
<g clip-path="url(#clip0_16605_217)">
<path d="M0.9375 24.6922H10.8235V19.0229H0.9375V24.6922ZM3.09966 20.491H8.70816V21.8966H3.09966V20.491Z" fill="#666666"/>
<path d="M0.9375 17.6174H10.8235V12.0419H0.9375V17.6174ZM3.09966 13.5375H8.70816V14.9431H3.09966V13.5375Z" fill="#666666"/>
<path d="M12.2295 24.6922H24.9267V12.0419H12.2295V24.6922ZM20.6631 13.5375H22.0686V14.9777H20.6631V13.5375ZM17.8519 13.5375H19.2575V14.9777H17.8519V13.5375ZM15.0407 13.5375H16.4463V14.9777H15.0407V13.5375ZM15.0407 16.2352H22.0686V21.881H15.0407V16.2352Z" fill="#666666"/>
<path d="M20.6631 3.93265V0.692139H16.4463V3.935L12.2295 6.74614V9.23065H24.9267V6.74379L20.6631 3.93265Z" fill="#666666"/>
</g>
<defs>
<clipPath id="clip0_16605_217">
<rect width="24" height="24" fill="white" transform="translate(0.931641 0.692139)"/>
</clipPath>
</defs>
</svg>
