<svg width="25" height="25" viewBox="0 0 25 25" fill="none" xmlns="http://www.w3.org/2000/svg">
<g clip-path="url(#clip0_16605_230)">
<path d="M20.5532 10.2504C20.8341 10.2504 21.0618 10.0227 21.0618 9.74185V8.11039C21.0618 7.82949 20.8341 7.60181 20.5532 7.60181L19.8294 7.60621L17.4541 10.2504H20.5532Z" fill="#666666"/>
<path d="M5.30839 10.2502H8.4319L6.01546 7.60168H5.30839C5.02749 7.60168 4.7998 7.82937 4.7998 8.11027V9.7416C4.7998 10.0225 5.02749 10.2502 5.30839 10.2502Z" fill="#666666"/>
<path d="M13.2222 12.873L17.9354 7.60181H7.92578L12.7164 12.875C12.8522 13.0245 13.0876 13.0236 13.2222 12.873Z" fill="#666666"/>
<path d="M14.5487 20.291H13.6732V14.3724C13.4631 14.4936 13.2231 14.5599 12.9756 14.5609C12.9737 14.5609 12.9719 14.5609 12.97 14.5609C12.7206 14.5609 12.4785 14.4945 12.2668 14.3723V20.291H11.3116C10.9232 20.291 10.6084 20.6058 10.6084 20.9942C10.6084 21.3825 10.9232 21.6973 11.3116 21.6973H14.5488C14.9371 21.6973 15.252 21.3825 15.252 20.9942C15.252 20.6058 14.9371 20.291 14.5487 20.291Z" fill="#666666"/>
<path d="M6.86133 12.2067H2.33799V3.87151C2.33799 3.48317 2.02316 3.16833 1.63482 3.16833C1.24648 3.16833 0.931641 3.48317 0.931641 3.87151V21.0504C0.931641 21.4388 1.24648 21.7536 1.63482 21.7536C2.02316 21.7536 2.33799 21.4388 2.33799 21.0504V15.7981H7.45069V21.0504C7.45069 21.4388 7.76552 21.7536 8.15387 21.7536C8.54221 21.7536 8.85704 21.4388 8.85704 21.0504V14.2024C8.85704 13.1019 7.96176 12.2067 6.86133 12.2067Z" fill="#666666"/>
<path d="M24.2278 3.16833C23.8394 3.16833 23.5246 3.48317 23.5246 3.87151V12.2067H19.1061C18.0056 12.2067 17.1104 13.102 17.1104 14.2024V21.0504C17.1104 21.4388 17.4252 21.7536 17.8135 21.7536C18.2019 21.7536 18.5167 21.4388 18.5167 21.0504V15.797H23.5246V21.0504C23.5246 21.4388 23.8395 21.7536 24.2278 21.7536C24.6162 21.7536 24.931 21.4388 24.931 21.0504V3.87151C24.9309 3.48317 24.6162 3.16833 24.2278 3.16833Z" fill="#666666"/>
</g>
<defs>
<clipPath id="clip0_16605_230">
<rect width="24" height="24" fill="white" transform="translate(0.931641 0.460938)"/>
</clipPath>
</defs>
</svg>
